<svg xmlns="http://www.w3.org/2000/svg" width="1525" height="400" viewBox="30 110 1525 400">
<g>
<path d="M 225.77 353.50 L 225.50 488.50 L 213.00 488.63 C196.13,488.80 177.14,486.80 159.16,482.94 L 154.00 481.83 L 154.01 347.17 C154.01,258.60 154.36,211.24 155.03,208.82 C156.85,202.29 162.02,195.82 167.86,192.79 C173.12,190.05 173.56,190.00 190.41,190.00 L 207.59 190.00 L 213.01 193.25 C219.89,197.38 223.73,203.37 225.06,212.08 C225.68,216.11 225.94,268.82 225.77,353.50 ZM 750.78 289.44 C749.56,290.30 746.59,291.00 744.18,291.00 C740.53,291.00 739.23,290.43 736.40,287.60 C733.57,284.77 733.00,283.47 733.00,279.85 C733.01,273.73 735.89,269.41 740.99,267.89 C744.46,266.85 745.59,266.91 748.54,268.32 C752.57,270.24 755.99,275.28 756.00,279.30 C756.00,282.86 753.65,287.43 750.78,289.44 ZM 1373.03 289.48 C1360.11,296.17 1349.90,277.39 1362.00,269.21 C1366.77,265.98 1371.39,266.73 1375.75,271.45 C1378.15,274.05 1379.00,275.90 1379.00,278.53 C1379.00,283.28 1376.63,287.62 1373.03,289.48 Z" fill="#0D9488"/>
<path d="M 283.31 487.51 C280.12,488.34 273.24,489.00 267.79,489.00 L 258.00 489.00 L 258.00 318.68 C258.00,304.10 258.00,290.72 257.99,278.44 C257.95,151.52 257.95,141.68 262.87,136.73 C263.76,135.84 264.81,135.10 266.04,133.86 C272.38,127.52 277.70,126.00 293.43,126.01 C306.59,126.01 310.98,126.84 316.08,130.27 C320.60,133.32 325.72,140.23 327.01,145.04 C327.74,147.75 328.12,193.81 328.21,290.25 C328.35,431.33 328.35,431.51 326.23,439.20 C319.17,464.83 303.74,482.19 283.31,487.51 ZM 367.87 472.09 C364.70,474.24 361.86,476.00 361.55,476.00 C361.25,476.00 361.00,419.61 361.00,350.68 C361.00,344.27 361.00,338.16 361.00,332.36 C360.99,228.52 360.99,219.64 365.14,213.64 C365.76,212.74 366.47,211.91 367.29,210.84 C369.15,208.41 372.83,205.39 375.88,203.79 C381.11,201.06 381.59,201.00 397.92,201.00 C414.56,201.00 414.62,201.01 419.05,203.85 C424.83,207.55 426.36,209.37 429.52,216.26 L 432.13 221.97 L 431.72 286.73 C431.26,359.05 431.20,359.71 423.47,386.77 C412.21,426.16 393.72,454.53 367.87,472.09 ZM 122.00 408.18 C122.00,457.78 121.74,471.00 120.75,470.98 C120.06,470.97 115.37,468.77 110.31,466.09 C84.15,452.19 64.75,433.44 53.63,411.27 L 50.00 404.05 L 50.02 372.77 C50.04,343.48 50.17,341.22 52.08,337.00 C54.82,330.96 58.49,327.22 64.50,324.38 C69.08,322.22 70.79,322.02 85.00,322.02 C93.53,322.01 102.30,322.51 104.50,323.12 C107.08,323.83 110.33,326.05 113.64,329.36 C115.27,330.99 116.59,332.23 117.65,333.65 C122.01,339.54 122.01,348.65 122.00,402.09 C122.00,404.06 122.00,406.09 122.00,408.18 ZM 541.69 382.37 C533.91,383.19 529.76,383.14 528.40,382.23 C527.80,381.83 524.29,370.92 520.60,358.00 C516.90,345.08 510.79,324.15 507.01,311.50 C503.23,298.85 499.48,286.20 498.67,283.39 L 497.19 278.27 L 506.25 277.59 C511.23,277.21 515.65,277.26 516.08,277.70 C516.50,278.14 519.06,286.60 521.75,296.50 C531.24,331.30 537.51,352.98 538.07,352.99 C538.39,353.00 542.61,338.94 547.45,321.75 C552.30,304.56 557.10,287.75 558.13,284.39 L 559.99 278.29 L 567.45 277.73 C571.55,277.42 575.72,277.38 576.72,277.64 C578.17,278.02 580.73,285.75 589.43,316.09 C595.43,336.98 600.64,353.72 601.03,353.28 C601.41,352.85 602.62,348.90 603.72,344.50 C605.36,337.94 613.90,306.91 620.53,283.40 L 621.97 278.30 L 631.15 277.65 C636.20,277.29 640.52,277.19 640.76,277.42 C640.99,277.66 638.45,287.22 635.12,298.67 C631.79,310.13 625.06,333.45 620.16,350.50 L 611.26 381.50 L 602.03 382.36 C594.67,383.05 592.54,382.95 591.52,381.86 C590.82,381.11 585.59,364.41 579.90,344.75 C574.21,325.09 569.26,309.00 568.90,309.00 C568.55,309.00 564.55,322.16 560.03,338.25 C555.50,354.34 550.87,370.71 549.74,374.62 L 547.67 381.75 ZM 949.40 370.76 L 945.31 382.50 L 936.74 382.79 C931.93,382.95 927.90,382.65 927.56,382.10 C927.05,381.28 936.25,356.19 960.79,291.50 L 965.72 278.50 L 986.50 277.97 L 993.67 297.23 C997.62,307.83 1005.65,329.10 1011.52,344.50 C1024.32,378.07 1025.36,380.97 1024.75,381.58 C1023.91,382.42 1011.27,383.29 1008.82,382.67 C1007.20,382.26 1006.00,380.85 1005.09,378.28 C1004.36,376.20 1002.43,371.01 1000.81,366.75 L 997.85 359.00 L 975.68 359.01 L 953.50 359.01 ZM 866.83 381.16 C852.67,386.54 835.69,382.90 826.02,372.40 C807.65,352.48 813.64,316.06 837.02,305.57 C847.93,300.68 862.01,301.09 871.63,306.59 C877.56,309.97 884.54,318.18 887.11,324.80 C890.48,333.47 890.92,348.72 888.06,357.32 C884.03,369.43 877.04,377.28 866.83,381.16 ZM 1156.02 380.90 C1142.39,386.76 1125.29,382.26 1119.18,371.21 C1114.25,362.30 1115.65,349.63 1122.27,343.23 C1128.65,337.05 1133.81,335.58 1150.37,335.17 L 1165.24 334.81 L 1164.71 330.87 C1163.51,321.94 1158.06,318.01 1146.87,318.00 C1140.16,318.00 1138.41,318.42 1132.40,321.44 C1128.63,323.34 1125.48,324.80 1125.40,324.69 C1125.31,324.59 1123.79,321.60 1122.01,318.07 C1118.91,311.88 1118.86,311.58 1120.64,310.24 C1130.07,303.16 1147.68,300.19 1161.24,303.38 C1168.13,305.00 1173.12,308.19 1176.62,313.20 C1181.63,320.38 1181.91,322.44 1181.96,353.20 L 1182.00 381.91 L 1178.73 382.52 C1176.93,382.86 1173.44,382.99 1170.98,382.82 L 1166.50 382.50 L 1165.50 373.81 L 1163.15 376.33 C1161.86,377.71 1158.65,379.76 1156.02,380.90 ZM 661.85 382.36 C654.11,383.17 652.50,383.16 651.67,382.33 C651.30,381.97 651.00,356.99 651.00,326.83 L 651.00 272.00 L 667.72 272.00 L 668.36 278.15 C668.71,281.53 669.00,290.35 669.00,297.75 L 669.00 311.21 L 672.41 308.21 C683.50,298.48 703.56,300.51 712.05,312.23 C717.47,319.71 718.00,323.49 718.00,354.68 L 718.00 383.00 L 714.14 383.00 C712.02,383.00 708.19,382.71 705.64,382.36 L 701.00 381.73 L 701.00 358.05 C701.00,330.64 700.14,325.74 694.63,321.53 C690.74,318.56 682.74,318.05 678.07,320.46 C669.66,324.81 668.00,331.52 668.00,361.19 L 668.00 381.72 ZM 1049.66 382.23 C1048.21,383.15 1035.57,383.24 1034.67,382.33 C1034.30,381.97 1034.00,363.97 1034.00,342.33 L 1034.00 303.00 L 1051.00 303.00 L 1051.00 312.16 L 1055.00 308.73 C1062.22,302.55 1073.50,300.44 1083.39,303.42 C1090.43,305.54 1094.46,309.16 1098.19,316.73 L 1101.50 323.45 L 1101.82 352.62 L 1102.13 381.78 L 1094.13 382.49 C1089.73,382.88 1085.65,382.90 1085.06,382.54 C1084.36,382.10 1084.00,373.33 1084.00,356.41 C1084.00,328.35 1083.67,326.43 1078.06,321.70 C1075.38,319.45 1073.89,319.00 1069.07,319.00 C1061.95,319.00 1057.61,321.60 1054.00,328.04 C1051.55,332.40 1051.49,333.03 1051.16,357.00 C1050.92,374.11 1050.46,381.72 1049.66,382.23 ZM 1250.54 409.63 C1242.69,413.29 1233.45,412.15 1226.61,406.68 L 1223.72 404.37 L 1226.50 398.18 C1228.02,394.78 1229.45,392.00 1229.68,392.00 C1229.90,392.00 1231.84,392.90 1234.00,394.00 C1239.76,396.94 1243.62,396.62 1247.09,392.91 C1248.68,391.21 1250.49,388.11 1251.11,386.03 C1252.16,382.52 1251.84,381.16 1246.69,367.37 C1243.63,359.19 1237.32,342.15 1232.67,329.50 C1228.01,316.85 1223.88,305.71 1223.49,304.75 C1222.85,303.16 1223.61,303.00 1231.77,303.00 L 1240.75 303.00 L 1249.53 328.25 C1259.24,356.14 1260.55,359.31 1261.40,357.00 C1261.71,356.17 1265.53,345.15 1269.90,332.50 C1274.27,319.85 1278.37,308.04 1279.02,306.25 L 1280.20 303.00 L 1288.10 303.00 C1292.44,303.00 1296.00,303.36 1296.00,303.80 C1296.00,304.70 1272.78,371.32 1267.40,385.87 C1261.57,401.62 1258.52,405.92 1250.54,409.63 ZM 1510.20 381.03 C1504.83,383.04 1493.18,384.24 1487.50,383.36 C1479.74,382.17 1464.00,376.21 1464.00,374.46 C1464.00,372.91 1470.03,361.00 1470.81,361.00 C1471.33,361.00 1473.72,362.10 1476.12,363.43 C1482.47,366.96 1493.00,369.38 1498.48,368.56 C1504.20,367.70 1509.00,363.84 1509.00,360.09 C1509.00,355.37 1505.23,353.00 1494.32,350.82 C1472.23,346.41 1463.24,337.55 1466.02,322.91 C1469.13,306.50 1485.93,298.73 1508.14,303.44 C1515.42,304.98 1523.00,308.41 1523.00,310.15 C1523.00,311.65 1517.86,323.00 1517.18,323.00 C1516.88,323.00 1514.72,322.07 1512.37,320.94 C1499.37,314.64 1483.00,317.21 1483.00,325.55 C1483.00,330.12 1486.79,332.57 1497.58,334.95 C1511.28,337.98 1513.25,338.67 1518.00,342.11 C1523.14,345.84 1525.95,351.71 1525.98,358.78 C1526.02,368.85 1519.98,377.37 1510.20,381.03 ZM 1442.72 379.93 C1432.39,384.95 1420.95,384.87 1409.63,379.69 C1402.43,376.39 1397.86,372.10 1394.28,365.29 C1389.95,357.04 1388.66,350.39 1389.23,339.35 C1389.67,331.07 1390.17,329.05 1393.39,322.53 C1400.50,308.14 1413.59,300.92 1430.05,302.30 C1439.07,303.06 1445.94,306.16 1451.33,311.92 C1458.87,319.99 1458.88,320.16 1451.74,324.63 C1448.34,326.76 1445.23,328.64 1444.84,328.81 C1444.45,328.98 1441.96,326.89 1439.31,324.15 C1435.37,320.08 1433.67,319.06 1429.93,318.50 C1416.21,316.47 1406.60,326.12 1406.53,342.00 C1406.49,351.41 1408.78,357.67 1413.99,362.37 C1417.69,365.71 1423.22,368.01 1427.50,367.97 C1431.15,367.94 1437.71,364.26 1440.62,360.61 C1442.21,358.62 1443.91,357.00 1444.40,357.00 C1444.90,357.00 1448.17,358.60 1451.66,360.55 C1457.55,363.85 1457.93,364.27 1456.87,366.30 C1453.96,371.92 1448.63,377.05 1442.72,379.93 ZM 1345.32 380.84 C1333.11,387.06 1316.84,382.36 1311.63,371.11 C1309.68,366.89 1309.47,364.48 1309.17,342.75 L 1308.84 319.00 L 1299.00 319.00 L 1299.00 304.00 L 1309.00 304.00 L 1309.00 285.00 L 1326.00 285.00 L 1326.00 293.89 C1326.00,294.21 1326.00,294.51 1326.00,294.80 C1325.99,299.26 1325.99,301.56 1327.14,302.75 C1328.36,304.01 1330.88,304.01 1336.08,304.00 C1336.41,304.00 1336.74,304.00 1337.08,304.00 L 1345.00 304.00 L 1345.00 319.00 L 1327.25 319.00 L 1326.62 322.12 C1325.71,326.71 1325.95,354.77 1326.94,359.94 C1327.83,364.53 1329.73,366.64 1333.93,367.70 C1336.10,368.24 1337.57,367.90 1343.06,365.59 C1344.27,365.08 1345.02,366.22 1346.44,370.72 C1347.44,373.90 1348.46,377.03 1348.71,377.69 C1348.96,378.34 1347.44,379.76 1345.32,380.84 ZM 1214.88 382.38 C1210.75,383.20 1202.51,383.17 1201.67,382.33 C1201.30,381.97 1201.00,356.99 1201.00,326.83 L 1201.00 272.00 L 1218.00 272.00 L 1218.00 381.75 ZM 781.25 382.01 C778.09,382.02 774.59,382.27 773.47,382.57 C772.36,382.87 771.12,382.79 770.72,382.39 C770.33,381.99 770.00,363.97 770.00,342.33 L 770.00 303.00 L 786.00 303.00 L 786.00 308.00 C786.00,310.75 786.15,313.00 786.34,313.00 C786.52,313.00 788.55,311.22 790.84,309.04 C795.20,304.89 802.53,302.00 808.68,302.00 L 812.00 302.00 L 812.00 320.00 L 806.97 320.00 C800.61,320.00 796.14,321.86 792.73,325.91 C787.92,331.63 787.00,337.19 787.00,360.68 L 787.00 382.00 ZM 846.01 366.41 C853.10,369.48 860.09,367.80 865.76,361.65 C870.78,356.20 872.46,351.37 872.44,342.44 C872.39,321.71 853.96,311.00 840.02,323.60 C835.17,327.98 833.00,334.14 833.01,343.43 C833.03,354.58 837.67,362.79 846.01,366.41 ZM 753.00 303.00 L 753.00 382.00 L 736.00 382.00 L 736.00 303.00 ZM 1370.75 382.35 C1362.91,383.29 1359.99,383.14 1359.46,381.75 C1359.19,381.06 1359.09,363.17 1359.24,342.00 L 1359.50 303.50 L 1376.00 302.92 L 1376.00 381.72 ZM 960.55 342.09 C961.23,343.18 990.69,343.33 991.31,342.25 C991.70,341.57 976.71,300.38 975.71,299.38 C975.01,298.68 959.95,341.11 960.55,342.09 ZM 1142.33 368.90 C1146.64,370.15 1147.90,370.16 1152.22,368.96 C1159.92,366.82 1165.00,360.30 1165.00,352.55 L 1165.00 348.00 L 1155.25 348.01 C1143.60,348.01 1138.79,349.18 1136.05,352.67 C1131.77,358.11 1135.14,366.82 1142.33,368.90 Z" fill="rgb(8,30,67)"/>

</g>
</svg>